<svg width="79" height="79" viewBox="0 0 79 79" fill="none" xmlns="http://www.w3.org/2000/svg">
<path d="M39.5002 73.225C57.9167 73.225 73.2253 57.9495 73.2253 39.5C73.2253 21.0836 57.8836 5.77505 39.4672 5.77505C21.0176 5.77505 5.77539 21.0836 5.77539 39.5C5.77539 57.9495 21.0507 73.225 39.5002 73.225ZM39.5002 50.7747C29.548 50.7747 21.8773 54.3125 18.5378 58.2801C14.1074 53.3205 11.4291 46.7409 11.4291 39.5C11.4291 23.927 23.8612 11.3959 39.4672 11.3959C55.0401 11.3959 67.5712 23.927 67.6045 39.5C67.6045 46.7741 64.9262 53.3536 60.4626 58.3132C57.1231 54.3455 49.4524 50.7747 39.5002 50.7747ZM39.5002 45.1539C45.8484 45.22 50.8411 39.7975 50.8411 32.6889C50.8411 26.0101 45.8154 20.4554 39.5002 20.4554C33.152 20.4554 28.0933 26.0101 28.1595 32.6889C28.1925 39.7975 33.119 45.0877 39.5002 45.1539Z" fill="#808080"/>
</svg>
