<svg width="28" height="28" viewBox="0 0 28 28" fill="none" xmlns="http://www.w3.org/2000/svg">
<path d="M14 0C8.20094 0 3.5 4.70094 3.5 10.5C3.5 12.9841 4.59462 15.1686 5.80606 17.0625L13.286 27.6307C13.4501 27.8626 13.7165 28 14 28C14.2835 28 14.5499 27.8626 14.714 27.6307L22.1939 17.0625C23.3516 15.5041 24.5 12.9841 24.5 10.5C24.5 4.70094 19.7991 0 14 0ZM14 16.625C10.6172 16.625 7.875 13.8827 7.875 10.5C7.875 7.11725 10.6172 4.375 14 4.375C17.3827 4.375 20.125 7.11725 20.125 10.5C20.125 13.8827 17.3827 16.625 14 16.625Z" fill="#231F20"/>
<path d="M14 5.25C11.1007 5.25 8.75 7.60069 8.75 10.5C8.75 13.3993 11.1007 15.75 14 15.75C16.8993 15.75 19.25 13.3993 19.25 10.5C19.25 7.60069 16.8993 5.25 14 5.25ZM14 14.875C11.5837 14.875 9.625 12.9159 9.625 10.5C9.625 8.08413 11.5837 6.125 14 6.125C16.4163 6.125 18.375 8.08413 18.375 10.5C18.375 12.9159 16.4163 14.875 14 14.875Z" fill="#231F20"/>
</svg>
