<svg width="44" height="38" viewBox="0 0 44 38" fill="none" xmlns="http://www.w3.org/2000/svg">
<path fill-rule="evenodd" clip-rule="evenodd" d="M0.0766732 22.9278V36.329C0.0766732 37.1896 0.81326 37.888 1.72084 37.888H5.25909C5.64846 37.8881 6.02523 37.7571 6.3223 37.5184C6.61937 37.2798 6.81748 36.9489 6.88133 36.5847L7.74945 31.652H36.2483L37.1143 36.5847C37.1781 36.9489 37.3762 37.2798 37.6733 37.5184C37.9704 37.7571 38.3471 37.8881 38.7365 37.888H42.277C42.713 37.888 43.1312 37.7238 43.4396 37.4314C43.7479 37.139 43.9211 36.7425 43.9211 36.329V22.9278C43.9212 20.4842 43.1585 18.0952 41.7289 16.062L40.019 13.63C39.8665 13.4134 39.7358 13.1838 39.6288 12.944H41.8078C42.1133 12.944 42.4128 12.8633 42.6726 12.7109C42.9324 12.5585 43.1424 12.3405 43.2788 12.0814L43.8269 11.042C43.9519 10.8045 44.0109 10.5406 43.9983 10.2754C43.9857 10.0102 43.9019 9.75244 43.7548 9.52655C43.6077 9.30067 43.4022 9.11415 43.1577 8.98466C42.9133 8.85518 42.6381 8.78703 42.3581 8.78667H38.6598L37.9802 5.57305C37.7735 4.59432 37.2738 3.69276 36.541 2.97616C35.8082 2.25955 34.8732 1.75823 33.8479 1.53212C30.6428 0.825374 26.6925 0.472 21.9989 0.472C17.3032 0.472 13.355 0.825374 10.1499 1.53212C9.1242 1.75788 8.18876 2.25904 7.45553 2.97567C6.7223 3.6923 6.22232 4.59405 6.01541 5.57305L5.33582 8.78667H1.64192C1.36194 8.78703 1.08669 8.85518 0.842264 8.98466C0.597839 9.11415 0.392335 9.30067 0.245229 9.52655C0.0981224 9.75244 0.0142878 10.0102 0.00167057 10.2754C-0.0109467 10.5406 0.0480711 10.8045 0.173131 11.042L0.721187 12.0814C0.857478 12.3402 1.06705 12.558 1.32645 12.7104C1.58585 12.8627 1.88485 12.9436 2.18998 12.944H4.37124C4.26412 13.1837 4.13347 13.4134 3.98102 13.63L2.2689 16.062C0.839567 18.0949 0.0766732 20.4833 0.0766732 22.9278ZM35.0667 12.9523C35.2178 13.6713 35.4684 14.3681 35.8121 15.0247H8.18571C8.52988 14.37 8.7798 13.6736 8.93106 12.9523L10.3165 6.38996C10.3574 6.19376 10.4572 6.01292 10.6038 5.86912C10.7504 5.72532 10.9376 5.62469 11.143 5.57928C13.9885 4.95568 17.6145 4.62933 21.9989 4.62933C26.3833 4.62933 30.0093 4.95361 32.8548 5.58136C33.0603 5.62626 33.2478 5.72643 33.3948 5.86986C33.5418 6.01328 33.642 6.19387 33.6834 6.38996L35.0667 12.9523ZM7.74945 25.416C8.62157 25.416 9.45797 25.0875 10.0747 24.5028C10.6913 23.918 11.0378 23.1249 11.0378 22.298C11.0378 21.4711 10.6913 20.678 10.0747 20.0932C9.45797 19.5085 8.62157 19.18 7.74945 19.18C6.87733 19.18 6.04093 19.5085 5.42425 20.0932C4.80757 20.678 4.46112 21.4711 4.46112 22.298C4.46112 23.1249 4.80757 23.918 5.42425 24.5028C6.04093 25.0875 6.87733 25.416 7.74945 25.416ZM39.5367 22.298C39.5367 23.1249 39.1902 23.918 38.5736 24.5028C37.9569 25.0875 37.1205 25.416 36.2483 25.416C35.3762 25.416 34.5398 25.0875 33.9231 24.5028C33.3065 23.918 32.96 23.1249 32.96 22.298C32.96 21.4711 33.3065 20.678 33.9231 20.0932C34.5398 19.5085 35.3762 19.18 36.2483 19.18C37.1205 19.18 37.9569 19.5085 38.5736 20.0932C39.1902 20.678 39.5367 21.4711 39.5367 22.298Z" fill="white"/>
</svg>
