<svg width="24" height="24" viewBox="0 0 24 24" fill="none" xmlns="http://www.w3.org/2000/svg">
<path d="M16.6295 13.8909L17.085 13.438L16.0273 12.3743L15.5719 12.8272L16.6295 13.8909ZM18.6146 13.2483L20.5252 14.2869L21.2416 12.9691L19.331 11.9305L18.6146 13.2483ZM20.893 16.3511L19.4723 17.7636L20.5299 18.8273L21.9506 17.4148L20.893 16.3511ZM18.6067 18.2184C17.1568 18.3535 13.4056 18.2331 9.34423 14.1947L8.28659 15.2584C12.7186 19.6653 16.9369 19.8805 18.7459 19.7119L18.6067 18.2184ZM9.34423 14.1947C5.47285 10.3453 4.83156 7.1076 4.75173 5.703L3.25415 5.78811C3.35461 7.55594 4.14868 11.144 8.28659 15.2584L9.34423 14.1947ZM10.7195 8.01436L11.0063 7.72917L9.94875 6.6655L9.66194 6.95068L10.7195 8.01436ZM11.2346 4.09396L9.9737 2.40956L8.77291 3.3085L10.0338 4.99291L11.2346 4.09396ZM5.73268 2.04294L4.16308 3.60363L5.22072 4.66731L6.79032 3.10662L5.73268 2.04294ZM10.1907 7.48252C9.66194 6.95068 9.66122 6.95139 9.6605 6.95211C9.66026 6.95235 9.65954 6.95308 9.65905 6.95357C9.65807 6.95456 9.65707 6.95556 9.65606 6.95659C9.65403 6.95866 9.65193 6.96081 9.64977 6.96305C9.64544 6.96754 9.64086 6.9724 9.63604 6.97764C9.62639 6.98811 9.6158 7.00009 9.60446 7.01362C9.58179 7.04067 9.5561 7.07398 9.5291 7.11383C9.47497 7.19372 9.41599 7.29935 9.36594 7.43219C9.26381 7.70324 9.20906 8.06055 9.2777 8.503C9.41194 9.36828 10.0078 10.5113 11.5343 12.0291L12.5919 10.9654C11.1634 9.54494 10.8231 8.68054 10.7599 8.27304C10.7298 8.07911 10.761 7.98366 10.7696 7.96106C10.7748 7.94708 10.7773 7.94565 10.7709 7.9552C10.7677 7.95987 10.7624 7.96718 10.7541 7.97703C10.75 7.98196 10.7451 7.98754 10.7394 7.99376C10.7365 7.99687 10.7335 8.00014 10.7301 8.00357C10.7285 8.00529 10.7268 8.00704 10.725 8.00884C10.7241 8.00974 10.7232 8.01065 10.7223 8.01157C10.7219 8.01203 10.7212 8.01273 10.7209 8.01296C10.7202 8.01366 10.7195 8.01436 10.1907 7.48252ZM11.5343 12.0291C13.0613 13.5474 14.2096 14.1383 15.0763 14.2713C15.5192 14.3392 15.8763 14.285 16.1472 14.1841C16.28 14.1346 16.3858 14.0763 16.4658 14.0227C16.5058 13.9959 16.5392 13.9704 16.5663 13.9479C16.5799 13.9367 16.5919 13.9262 16.6024 13.9166C16.6077 13.9118 16.6126 13.9073 16.6171 13.903C16.6194 13.9008 16.6215 13.8987 16.6236 13.8967C16.6246 13.8957 16.6256 13.8947 16.6266 13.8937C16.6271 13.8932 16.6279 13.8925 16.6281 13.8923C16.6288 13.8916 16.6295 13.8909 16.1007 13.359C15.5719 12.8272 15.5726 12.8265 15.5733 12.8258C15.5735 12.8256 15.5742 12.8249 15.5747 12.8244C15.5756 12.8235 15.5765 12.8226 15.5774 12.8217C15.5793 12.82 15.581 12.8183 15.5827 12.8166C15.5862 12.8133 15.5895 12.8103 15.5926 12.8074C15.5988 12.8018 15.6044 12.7969 15.6094 12.7929C15.6192 12.7847 15.6265 12.7795 15.631 12.7764C15.6403 12.7702 15.6384 12.773 15.6236 12.7785C15.5991 12.7876 15.501 12.8189 15.3038 12.7886C14.8905 12.7253 14.02 12.3853 12.5919 10.9654L11.5343 12.0291ZM9.9737 2.40956C8.95439 1.04797 6.95001 0.832524 5.73268 2.04294L6.79032 3.10662C7.322 2.57795 8.26628 2.63176 8.77291 3.3085L9.9737 2.40956ZM4.75173 5.703C4.73206 5.35689 4.8908 4.99535 5.22072 4.66731L4.16308 3.60363C3.62576 4.1379 3.20334 4.8942 3.25415 5.78811L4.75173 5.703ZM19.4723 17.7636C19.1975 18.0369 18.9029 18.1908 18.6067 18.2184L18.7459 19.7119C19.4805 19.6434 20.0824 19.2723 20.5299 18.8273L19.4723 17.7636ZM11.0063 7.72917C11.9908 6.75025 12.064 5.20185 11.2346 4.09396L10.0338 4.99291C10.4373 5.53189 10.3773 6.23933 9.94875 6.6655L11.0063 7.72917ZM20.5252 14.2869C21.343 14.7315 21.4704 15.7769 20.893 16.3511L21.9506 17.4148C23.2908 16.0821 22.8776 13.8584 21.2416 12.9691L20.5252 14.2869ZM17.085 13.438C17.469 13.0562 18.0871 12.9616 18.6146 13.2483L19.331 11.9305C18.2474 11.3414 16.9026 11.5041 16.0273 12.3743L17.085 13.438Z" fill="#58B1FF"/>
</svg>
