<svg width="55" height="55" viewBox="0 0 55 55" fill="none" xmlns="http://www.w3.org/2000/svg">
<path fill-rule="evenodd" clip-rule="evenodd" d="M44.6875 27.5C44.6875 36.9923 36.9923 44.6875 27.5 44.6875C18.0076 44.6875 10.3125 36.9923 10.3125 27.5C10.3125 18.0076 18.0076 10.3125 27.5 10.3125C36.9923 10.3125 44.6875 18.0076 44.6875 27.5ZM48.125 27.5C48.125 38.891 38.891 48.125 27.5 48.125C16.1091 48.125 6.875 38.891 6.875 27.5C6.875 16.1091 16.1091 6.875 27.5 6.875C38.891 6.875 48.125 16.1091 48.125 27.5ZM25.7812 30.9375V18.9062H29.2188V30.9375H25.7812ZM25.7812 36.0938V32.6562H29.2188V36.0938H25.7812Z" fill="#FF2A2A"/>
</svg>
